<?xml version="1.0" standalone="no"?><!DOCTYPE svg PUBLIC "-//W3C//DTD SVG 1.1//EN" "http://www.w3.org/Graphics/SVG/1.1/DTD/svg11.dtd"><svg width="100%" height="100%" viewBox="0 0 73 63" version="1.1" xmlns="http://www.w3.org/2000/svg" xmlns:xlink="http://www.w3.org/1999/xlink" xml:space="preserve" style="fill-rule:evenodd;clip-rule:evenodd;stroke-linejoin:round;stroke-miterlimit:1.41421;"><path id="path-1" d="M62.243,19.362c-4.063,4.066 -2.582,10.731 -4.388,10.731c-1.805,0 -0.34,-6.815 -4.252,-10.731c-3.912,-3.915 -10.725,-2.372 -10.725,-4.329c0,-1.958 6.813,-0.402 10.725,-4.318c3.912,-3.915 2.428,-10.729 4.234,-10.729c1.805,0 0.644,6.964 4.406,10.729c3.761,3.765 10.725,2.66 10.725,4.316c0,1.657 -6.663,0.265 -10.725,4.331ZM50.138,37.867c0,2.761 -11.104,0.441 -17.875,7.218c-6.771,6.777 -4.303,17.885 -7.312,17.885c-3.01,0 -0.567,-11.359 -7.087,-17.885c-6.52,-6.526 -17.875,-3.953 -17.875,-7.216c0,-3.263 11.355,-0.67 17.875,-7.196c6.52,-6.525 4.046,-17.881 7.056,-17.881c3.009,0 1.074,11.607 7.343,17.881c6.27,6.275 17.875,4.433 17.875,7.194Z" style="fill:#0d9e93;"/></svg>